<svg id="Layer_1" data-name="Layer 1" xmlns="http://www.w3.org/2000/svg" viewBox="0 0 127.76 240.21"><defs><style>.cls-1{fill:#bd6481;}.cls-2{fill:#ffdbbe;}.cls-3{fill:#ffb89b;}.cls-4{fill:#380725;}.cls-5,.cls-8{fill:none;stroke:#380725;stroke-linecap:round;stroke-linejoin:round;}.cls-5{stroke-width:1.83px;}.cls-6{fill:#fff;}.cls-7{fill:#ff777b;}.cls-8{stroke-width:1.78px;}</style></defs><path class="cls-1" d="M123.07,220s-.06,0-.08.07a184.44,184.44,0,0,1,5.08,22.14H24.18a172.65,172.65,0,0,1,3.23-17.93,18.12,18.12,0,0,1-1.81-1.05,23.82,23.82,0,0,1-9-12.46,35.32,35.32,0,0,1-1.18-15.84,43.09,43.09,0,0,1,4.71-14.4c4-7.42,10.07-13.24,16.72-18.11,1.62-1.2,3.27-2.33,4.94-3.42l.55-.36c1.95-1.25,4.36-.39,6.57.19a24.3,24.3,0,0,1,2.91,1h0c4.33,1.72,9,4.62,13.32,6.82L75,166l2-.12,2.09-.12a1.6,1.6,0,0,1,0-.21c.83-.33,1.68-.72,2.56-1.16.54-.26,1.08-.52,1.64-.82l1.38-.73,1.76-1h0c1.07-.58,2.16-1.19,3.26-1.77L90,160l1.43-.75A39.38,39.38,0,0,1,99.2,156c2.22-.58,4.61-1.43,6.57-.18,1,.65,2,1.31,3,2,1.47,1,2.9,2,4.31,3.15,5.94,4.59,11.27,10,14.92,16.75a42.74,42.74,0,0,1,4.72,14.4A35.47,35.47,0,0,1,131.52,208a24.3,24.3,0,0,1-8.41,12Z" transform="translate(-5.33 -2)"/><path class="cls-2" d="M41.62,171.18c3.25,1.36,7.51.38,10.15-1.66a8.59,8.59,0,0,0,8.9,8.85c5-.18,8.26-4.17,10.58-7.67,1.21,3.5,5.53,6.29,10.19,6.23s9.09-3.25,9.12-6.89c1.82,3.53,8,5.15,12.24,3.2s5.45-7,2.4-9.94c3.15,1.24,7.34-.61,8.39-3.26s-.51-5.59-3.08-7.48-6-2.91-9.37-3.7a94.2,94.2,0,0,0-37.74-.74c-7,1.3-16.66,2-22,6.25-2.76,2.15-8.57,8.62-1.3,9.63C37.44,166.08,38.38,169.84,41.62,171.18Z" transform="translate(-5.33 -2)"/><path class="cls-2" d="M98.21,64.47s2.49-26.34,3.21-33.4-1.16-27.34,2.66-28.7,17.75.31,22.1,15.61,1.69,21.56-2.19,31a165.14,165.14,0,0,0-6.07,17.64Z" transform="translate(-5.33 -2)"/><path class="cls-3" d="M103.71,10c-.11-1.54-.13-3.34,1.07-4.31a3.21,3.21,0,0,1,3.52-.07,8.24,8.24,0,0,1,2.58,2.67c7.34,10.63,10,24.66,6,36.92-1.18,3.56-3,7.11-6.14,9.32-2,1.42-7.19,3.8-8.75.49-.76-1.61.27-4.41.5-6.08q.48-3.63.83-7.28.7-7.44.85-14.91Q104.28,18.34,103.71,10Z" transform="translate(-5.33 -2)"/><path class="cls-2" d="M25.42,75.16s2.31,3.48,1.86,13.43-11.52,34.85-8,51.13,5.84,20.73,54.89,20.44c15.25-.1,43.55,1.2,53.53-13.22,3.45-5,4-11.53,2.85-17.49-1.85-9.49-7.7-17.49-9.24-27.11-2-12.14,3.48-25.52-6.68-35.19-7.35-7-18.49-8.79-28.08-10.53a61,61,0,0,0-41.21,7.16Z" transform="translate(-5.33 -2)"/><path class="cls-4" d="M41.89,81a8.29,8.29,0,0,0-4.68,2.21,2.53,2.53,0,0,0-.89,2.17,2,2,0,0,0,1.18,1.32,4.77,4.77,0,0,0,1.8.35,18.81,18.81,0,0,0,6.28-.77,6.18,6.18,0,0,0,2.14-1,2.43,2.43,0,0,0-.12-4.06C46.16,80.47,43.4,80.77,41.89,81Z" transform="translate(-5.33 -2)"/><path class="cls-2" d="M26.43,77.49s-1.69-2.41-8.78-10.9S2.81,45.53,6.11,26.67,26.15,7.29,27.72,9s6.15,19.66,8.68,31.17,6.34,29.45,6.34,29.45Z" transform="translate(-5.33 -2)"/><path class="cls-3" d="M34.88,70c-1.12-4.2-4.13-7.58-6.61-11.16a51,51,0,0,1-8.63-35C20.11,20,21.17,16,23.47,13a2.52,2.52,0,0,1,4.16.34,10.19,10.19,0,0,1,.77,1.7C33.1,29,37.82,43,39.45,57.5a22,22,0,0,1,0,6.58C39,66.25,36.68,68.69,34.88,70Z" transform="translate(-5.33 -2)"/><path class="cls-2" d="M44.17,52a13,13,0,0,1,12.69-.82,17,17,0,0,1,7-10,12.36,12.36,0,0,1,11.9-.88A12.33,12.33,0,0,1,98,41.21a13.44,13.44,0,0,1,20,10.57,12.19,12.19,0,0,1,7.26,14.42,12.11,12.11,0,0,1-14,8,13.82,13.82,0,0,1-17.82,13.5C89.3,86.44,86,83.21,83,79.88a14.34,14.34,0,0,1-7.15,7.66,11.26,11.26,0,0,1-10.29-.43c-3.92-2.37-5.73-7-7.15-11.4A13.08,13.08,0,0,1,44,77.9C33.53,72.7,35.38,57.89,44.17,52Z" transform="translate(-5.33 -2)"/><path class="cls-4" d="M110.27,80.36A8.36,8.36,0,0,1,115,82.57a2.48,2.48,0,0,1,.89,2.17,2,2,0,0,1-1.18,1.33,4.91,4.91,0,0,1-1.79.34,18.84,18.84,0,0,1-6.29-.77,6.13,6.13,0,0,1-2.13-1,2.43,2.43,0,0,1,.12-4.06C106,79.82,108.76,80.13,110.27,80.36Z" transform="translate(-5.33 -2)"/><path class="cls-4" d="M72.26,86.6a14.17,14.17,0,0,1-12.5-7.42c-3.13,1.21-7.63,2.3-12.06,1s-7.8-5-8.21-9.09a.48.48,0,0,1,.42-.52.49.49,0,0,1,.52.43c.37,3.68,3.47,7.08,7.54,8.28,4.36,1.27,8.85.09,11.84-1.13a.47.47,0,0,1,.61.23,12.82,12.82,0,0,0,23.44-.72.46.46,0,0,1,.43-.3.46.46,0,0,1,.44.28,10.2,10.2,0,0,0,19.07-1.1.47.47,0,0,1,.9.28,11.14,11.14,0,0,1-20.38,2.1A14.16,14.16,0,0,1,72.4,86.6Z" transform="translate(-5.33 -2)"/><path class="cls-4" d="M116.79,73.74a25.15,25.15,0,0,1-4-.33,30.56,30.56,0,0,0-3.44-.33.46.46,0,0,1-.46-.48.45.45,0,0,1,.47-.46,29.8,29.8,0,0,1,3.56.34,17.4,17.4,0,0,0,5.42.17,9.51,9.51,0,0,0,7.38-8.59,11.77,11.77,0,0,0-5.42-10.42.46.46,0,0,1-.13-.65.47.47,0,0,1,.65-.14,12.72,12.72,0,0,1,5.84,11.28,10.5,10.5,0,0,1-8.15,9.45A11.37,11.37,0,0,1,116.79,73.74Z" transform="translate(-5.33 -2)"/><path class="cls-3" d="M61.05,111.16c-1.16,2.13-1.83,4.49-2.89,6.66-1.61,3.29-4.1,6.09-5.73,9.36a25.92,25.92,0,0,0-2,15.38,20.32,20.32,0,0,0,4,9.87c3,3.69,7.67,5.65,12.3,6.81,6.94,1.75,14.53,2,21-1a23.55,23.55,0,0,0,12.39-14A24.1,24.1,0,0,0,98.3,125.6c-1.71-3.14-4.11-5.88-5.67-9.09-1.65-3.41-2.42-7.43-5.23-10C79.88,99.81,65.77,102.52,61.05,111.16Z" transform="translate(-5.33 -2)"/><path class="cls-5" d="M68.41,117.76a12.56,12.56,0,0,0,9.53,3.2,17.93,17.93,0,0,0,9.46-3.83" transform="translate(-5.33 -2)"/><path class="cls-4" d="M78.19,116.87a.41.41,0,0,1-.35-.24,8.87,8.87,0,0,0-3.33-3.82,5.58,5.58,0,0,0-4.78-.56.43.43,0,0,1-.3-.81,6.48,6.48,0,0,1,5.52.62,9.33,9.33,0,0,1,3.19,3.34,7.7,7.7,0,0,1,3.17-3.57,7.51,7.51,0,0,1,5.6-.79.42.42,0,0,1,.31.52.43.43,0,0,1-.52.31,6.75,6.75,0,0,0-5,.7,6.88,6.88,0,0,0-3.1,4,.43.43,0,0,1-.37.31Z" transform="translate(-5.33 -2)"/><path class="cls-4" d="M78.33,167a5.86,5.86,0,0,1-4.9-2.54,6.29,6.29,0,0,1-9.7-1.47.48.48,0,0,1,.18-.65.47.47,0,0,1,.64.18,5.33,5.33,0,0,0,8.62.86.46.46,0,0,1,.41-.15.49.49,0,0,1,.37.25,4.74,4.74,0,0,0,8.93-1.58.43.43,0,0,1,.23-.35.5.5,0,0,1,.43,0,5.51,5.51,0,0,0,7-2.66.48.48,0,0,1,.62-.24.47.47,0,0,1,.24.62,6.19,6.19,0,0,1-3.52,3.22,6.33,6.33,0,0,1-4.22.14A5.8,5.8,0,0,1,79.16,167,4.67,4.67,0,0,1,78.33,167Z" transform="translate(-5.33 -2)"/><ellipse class="cls-6" cx="106.65" cy="108.25" rx="17.92" ry="18.26" transform="translate(-18.73 13.1) rotate(-7.62)"/><path class="cls-7" d="M107.35,103.92s-4.6-8.55-10.37-4.27c-8.44,6.25,11,21.67,11,21.67s16.79-14.27,11-20.59C112.86,94.12,107.35,103.92,107.35,103.92Z" transform="translate(-5.33 -2)"/><path class="cls-6" d="M61.59,109.05A18.44,18.44,0,1,1,40.86,93.22,18.46,18.46,0,0,1,61.59,109.05Z" transform="translate(-5.33 -2)"/><path class="cls-7" d="M42.81,105.33s-4.6-8.56-10.37-4.28c-8.43,6.26,11,21.67,11,21.67s16.78-14.27,11-20.59C48.32,95.52,42.81,105.33,42.81,105.33Z" transform="translate(-5.33 -2)"/><path class="cls-7" d="M50.26,131.14c.2,3.71-6.38,7.08-14.69,7.52s-15.2-2.21-15.4-5.93,6.38-7.08,14.69-7.52S50.06,127.42,50.26,131.14Z" transform="translate(-5.33 -2)"/><path class="cls-7" d="M131.29,129.65c.2,3.71-6.38,7.08-14.69,7.52s-15.2-2.22-15.4-5.93,6.38-7.08,14.69-7.52S131.1,125.93,131.29,129.65Z" transform="translate(-5.33 -2)"/><polygon class="cls-4" points="33.06 183.3 65.22 195.82 68.03 183.3 38.74 172.73 33.06 183.3"/><path class="cls-8" d="M27.41,224.28s18.89,10,31.3-4.23S73.36,185.3,73.36,185.3l-29.3-10.58L30.84,199.06" transform="translate(-5.33 -2)"/><polygon class="cls-4" points="103.35 179.9 72.87 196.1 68.62 184 96.47 170.06 103.35 179.9"/><path class="cls-8" d="M124.14,219.33s-17.58,12.15-31.58-.54S74,186,74,186l27.85-13.94,16,22.62" transform="translate(-5.33 -2)"/><path class="cls-8" d="M61.24,229.19a6.11,6.11,0,0,0,11.48.52,7.15,7.15,0,0,0,5,3.53,4.47,4.47,0,0,0,4.86-3.18,7,7,0,0,0,10.18,0" transform="translate(-5.33 -2)"/></svg>