<svg id="Layer_3" data-name="Layer 3" xmlns="http://www.w3.org/2000/svg" viewBox="0 0 178.79 230.21"><defs><style>.cls-1{fill:#bd6481;}.cls-2{fill:#380725;}.cls-3{fill:#ffdbbe;}.cls-4{fill:#ffb89b;}.cls-5{fill:#ff777b;}.cls-6,.cls-7{fill:none;stroke:#380725;stroke-linecap:round;stroke-linejoin:round;}.cls-6{stroke-width:1.81px;}.cls-7{stroke-width:2.44px;}</style></defs><path class="cls-1" d="M159.91,103.3s-1.26,7-3.78,16.24q-.65,2.33-1.37,4.79c-2.67,8.93-6.34,19.06-11,27A97.8,97.8,0,0,1,117,179.89l-7.32-7.32,15.15-57.81,1-3.62,3-11.32Z" transform="translate(-4.22 -10.87)"/><path class="cls-2" d="M159.91,103.3s-1.26,7-3.78,16.24a34.13,34.13,0,0,1-11.3-.45,44.41,44.41,0,0,1-15.44-5.32,27.76,27.76,0,0,1-3.59-2.63l3-11.32Z" transform="translate(-4.22 -10.87)"/><path class="cls-1" d="M82.26,178.27c-1.9,4.11-4.88,8.08-7.08,12-6.32-6.3-14.27-10.66-21.68-15.65a165.29,165.29,0,0,1-37.91-35.2c-.53-.69-1.06-1.37-1.57-2.06a119.14,119.14,0,0,1-9.8-15.34,32.92,32.92,0,0,1,4.28-4.93c6.07-6,13.48-10.94,20.52-15.7q5.25,6.6,10.37,13.25c.47.59.93,1.2,1.39,1.8Q62,144,81.9,172.44a6.06,6.06,0,0,1,1.17,2.32A6,6,0,0,1,82.26,178.27Z" transform="translate(-4.22 -10.87)"/><path class="cls-1" d="M130.58,241.08H44c10-17.94,19.23-36.9,23.49-57.21.65-3.12,1.19-6.27,1.59-9.46a2.17,2.17,0,0,0,0-.25,10.16,10.16,0,0,1,3.61-6.62,17.79,17.79,0,0,1,4-2.5,53.14,53.14,0,0,1,7.76-2.72l1.68-.5c.88-.26,1.76-.48,2.64-.65a38.54,38.54,0,0,1,13.84-.07h0a49.67,49.67,0,0,1,5.48,1.21l.42.11.9.26a12.35,12.35,0,0,1,2.55,1.1,6.75,6.75,0,0,1,1.07.77,13.53,13.53,0,0,1,3.11,5.23c.41,1,.83,2.08,1.24,3.13.68,1.73,1.37,3.47,2,5.23.36,1,.72,1.91,1.07,2.88C127.53,200.34,132.51,220.73,130.58,241.08Z" transform="translate(-4.22 -10.87)"/><path class="cls-2" d="M120.51,181a33.81,33.81,0,0,1-15.58,2.75c-12.79-.52-25.11-6.75-32.24-16.23,3.45-3,8.75-4.34,13.44-5.72,7.3-2.15,15.1-1.47,22.42.6a11,11,0,0,1,4.51,2.13,13.55,13.55,0,0,1,3.12,5.23C117.67,173.48,119.14,177.24,120.51,181Z" transform="translate(-4.22 -10.87)"/><path class="cls-3" d="M66.2,174c3.13,1.06,7.07-.14,9.42-2.22a8.09,8.09,0,0,0,8.94,7.73c4.71-.49,7.48-4.45,9.43-7.89,1.37,3.21,5.6,5.55,10,5.19s8.32-3.64,8.12-7.06c1.94,3.2,7.85,4.31,11.7,2.2s4.66-6.9,1.6-9.48c3,1,6.86-1.05,7.67-3.61s-.84-5.21-3.37-6.82-5.8-2.35-9-2.87A88.64,88.64,0,0,0,85.15,151c-6.53,1.68-15.5,3-20.28,7.3-2.45,2.2-7.49,8.65-.59,9.13C61.94,169.51,63.07,173,66.2,174Z" transform="translate(-4.22 -10.87)"/><path class="cls-3" d="M112.41,70.14s.63-24.9.85-31.58-2.87-25.6.63-27.12,16.69-.87,21.77,13.22,3,20.14,0,29.29a155.42,155.42,0,0,0-4.56,17Z" transform="translate(-4.22 -10.87)"/><path class="cls-4" d="M114,18.59c-.19-1.43-.33-3.12.73-4.11a3,3,0,0,1,3.31-.29,7.72,7.72,0,0,1,2.59,2.34c7.58,9.51,11,22.5,8,34.28-.87,3.42-2.37,6.87-5.16,9.15-1.8,1.47-6.5,4-8.18,1-.82-1.46,0-4.15.07-5.74q.23-3.45.31-6.9.18-7-.17-14.05C115.25,29.05,114.76,23.8,114,18.59Z" transform="translate(-4.22 -10.87)"/><path class="cls-3" d="M44.75,84.9S47.14,88,47.37,97.4s-8.56,33.47-4.2,48.54S50,165,96.05,161.56c14.31-1.08,41-1.69,49.41-15.88,2.92-4.91,3-11.1,1.55-16.62-2.36-8.79-8.37-15.93-10.45-24.86C133.94,92.92,138.18,80,128,71.59c-7.36-6.1-17.94-7-27.06-8.07a57.5,57.5,0,0,0-38.24,9.4Z" transform="translate(-4.22 -10.87)"/><path class="cls-2" d="M57.74,110.64a2.46,2.46,0,0,0-1.41.54,1.42,1.42,0,0,0,.35,2,5.69,5.69,0,0,0,2.36,1,7.64,7.64,0,0,0-1.92,1,1.07,1.07,0,0,0-.39.43c-.23.63.8,1.06,1.57,1.13a62.61,62.61,0,0,0,8.77,0c1.43-.07,2.87-.14,4.3-.14,1.18,0,2.9.38,4,0,2.94-.92-.45-2.79-1.7-3.42a26.75,26.75,0,0,0-7.37-2.45A25.84,25.84,0,0,0,57.74,110.64Z" transform="translate(-4.22 -10.87)"/><path class="cls-2" d="M130,104a2.54,2.54,0,0,1,1.49.29,1.42,1.42,0,0,1,0,2.06,5.71,5.71,0,0,1-2.15,1.37,7.52,7.52,0,0,1,2.06.66,1,1,0,0,1,.46.35c.34.58-.59,1.18-1.34,1.39a63.49,63.49,0,0,1-8.64,1.51c-1.42.18-2.85.37-4.26.62-1.16.2-2.78.89-3.92.74-3.06-.38-.05-2.82,1.07-3.66a26.4,26.4,0,0,1,6.83-3.71A26,26,0,0,1,130,104Z" transform="translate(-4.22 -10.87)"/><path class="cls-3" d="M45.84,87s-1.73-2.16-9-9.66S21.59,58.55,23.46,40.62s17.56-19.5,19.15-18,7,18.07,10.18,28.71S60.65,78.6,60.65,78.6Z" transform="translate(-4.22 -10.87)"/><path class="cls-4" d="M53.29,79.4c-1.32-3.87-4.37-6.86-6.93-10.05A48,48,0,0,1,36,37.07c.2-3.61.94-7.43,2.9-10.38a2.37,2.37,0,0,1,3.93.06,9,9,0,0,1,.84,1.54C49,41,54.3,53.85,56.77,67.41a20.76,20.76,0,0,1,.44,6.18C57,75.65,54.9,78.09,53.29,79.4Z" transform="translate(-4.22 -10.87)"/><path class="cls-3" d="M60.85,62a12.23,12.23,0,0,1,11.87-1.59,16,16,0,0,1,5.92-9.87,11.63,11.63,0,0,1,11.12-1.59,11.61,11.61,0,0,1,21-.62,12.66,12.66,0,0,1,19.49,8.63A11.47,11.47,0,0,1,138,70a11.38,11.38,0,0,1-12.58,8.43,13,13,0,0,1-15.86,13.85c-4.07-.93-7.43-3.75-10.39-6.69a13.56,13.56,0,0,1-6.22,7.67,10.59,10.59,0,0,1-9.69.26c-3.84-2-5.84-6.24-7.46-10.24a12.31,12.31,0,0,1-13.44,3C52.2,82.07,53,68,60.85,62Z" transform="translate(-4.22 -10.87)"/><path class="cls-2" d="M89.47,92.61a13.32,13.32,0,0,1-12.21-6.16c-2.86,1.34-7,2.65-11.26,1.72s-7.66-4.22-8.3-8a.44.44,0,0,1,.87-.15c.59,3.43,3.72,6.43,7.62,7.29,4.18.91,8.32-.49,11-1.83a.43.43,0,0,1,.58.18,12.06,12.06,0,0,0,22-2.21.44.44,0,0,1,.38-.3.39.39,0,0,1,.43.23,9.6,9.6,0,0,0,17.84-2.27.45.45,0,0,1,.54-.33.44.44,0,0,1,.33.53,10.49,10.49,0,0,1-19,3.3,13.35,13.35,0,0,1-10.69,8Z" transform="translate(-4.22 -10.87)"/><path class="cls-2" d="M130.47,77.64a23.7,23.7,0,0,1-3.77-.06,27.13,27.13,0,0,0-3.25-.08.44.44,0,0,1-.46-.42.43.43,0,0,1,.41-.47,28.82,28.82,0,0,1,3.36.09,16,16,0,0,0,5.1-.19A9,9,0,0,0,138.24,68a11.09,11.09,0,0,0-5.77-9.43.44.44,0,0,1-.16-.6.43.43,0,0,1,.6-.17A12,12,0,0,1,139.12,68a9.4,9.4,0,0,1-8.65,9.68Z" transform="translate(-4.22 -10.87)"/><path class="cls-4" d="M80.55,116.4c-1,2.07-1.43,4.33-2.28,6.45-1.3,3.19-3.46,6-4.78,9.16a24.31,24.31,0,0,0-.91,14.57,19.15,19.15,0,0,0,4.36,9c3.07,3.27,7.57,4.81,12,5.6,6.63,1.19,13.77.9,19.68-2.33a22.18,22.18,0,0,0,10.73-13.94,22.62,22.62,0,0,0-2.87-17.37c-1.81-2.84-4.25-5.26-5.92-8.18-1.77-3.09-2.75-6.82-5.56-9C97.49,104.52,84.42,108,80.55,116.4Z" transform="translate(-4.22 -10.87)"/><path class="cls-2" d="M75.49,125.52l39.07-4.32s1.11,19.86-17.32,22S75.49,125.52,75.49,125.52Z" transform="translate(-4.22 -10.87)"/><path class="cls-5" d="M108.24,136.68c-1.37-1.82-4.08-2-6.31-1.47s-4.37,1.56-6.66,1.55c-1.16,0-2.31-.29-3.47-.34a8.56,8.56,0,0,0-6.65,2.88,19.83,19.83,0,0,0,12.47,3.06C101.88,141.89,105.22,139.72,108.24,136.68Z" transform="translate(-4.22 -10.87)"/><path class="cls-2" d="M95.45,120.51a.4.4,0,0,1-.35-.21,8.56,8.56,0,0,0-3.44-3.4,5.45,5.45,0,0,0-4.62-.22.41.41,0,0,1-.54-.2.42.42,0,0,1,.2-.55,6.29,6.29,0,0,1,5.33.24,8.86,8.86,0,0,1,3.28,2.94,7.26,7.26,0,0,1,8.11-4.7.41.41,0,0,1,.33.47.39.39,0,0,1-.47.33,6.61,6.61,0,0,0-4.72,1,6.5,6.5,0,0,0-2.71,4,.39.39,0,0,1-.33.31Z" transform="translate(-4.22 -10.87)"/><path class="cls-2" d="M100.4,167.75a5.51,5.51,0,0,1-4.76-2.07,5.91,5.91,0,0,1-9.2-.75.44.44,0,1,1,.73-.5,5,5,0,0,0,8.16.25.43.43,0,0,1,.37-.17.45.45,0,0,1,.36.22,4.46,4.46,0,0,0,8.28-2.07.42.42,0,0,1,.2-.34.44.44,0,0,1,.4,0,5.18,5.18,0,0,0,6.44-3,.45.45,0,0,1,.57-.27.44.44,0,0,1,.26.57,5.8,5.8,0,0,1-3.1,3.25,5.89,5.89,0,0,1-3.94.4,5.49,5.49,0,0,1-4,4.35A5.29,5.29,0,0,1,100.4,167.75Z" transform="translate(-4.22 -10.87)"/><path class="cls-5" d="M71.71,135.86c.43,3.48-5.53,7.07-13.31,8S44,142.79,43.56,139.32s5.53-7.07,13.3-8S71.28,132.39,71.71,135.86Z" transform="translate(-4.22 -10.87)"/><path class="cls-5" d="M147.71,129.2c.43,3.47-5.53,7.06-13.3,8s-14.43-1.09-14.85-4.56,5.53-7.06,13.31-8S147.29,125.72,147.71,129.2Z" transform="translate(-4.22 -10.87)"/><path class="cls-2" d="M67.46,94.22c-1.9.37-3.91,1.11-4.9,2.77a1.88,1.88,0,0,0-.26.68A1.47,1.47,0,0,0,63,99a3.08,3.08,0,0,0,1.48.47,11.12,11.12,0,0,0,6.43-1.68,4.21,4.21,0,0,0,1.46-1.18C74.27,93.79,68.81,94,67.46,94.22Z" transform="translate(-4.22 -10.87)"/><path class="cls-2" d="M116,92.34c1.91-.3,4-.27,5.55,1a1.92,1.92,0,0,1,.48.55,1.49,1.49,0,0,1-.18,1.49,3.11,3.11,0,0,1-1.24.94,11,11,0,0,1-6.61.59,4.06,4.06,0,0,1-1.78-.61C109.4,94.24,114.6,92.55,116,92.34Z" transform="translate(-4.22 -10.87)"/><path class="cls-2" d="M39.39,114.68l-.31.33A231.46,231.46,0,0,1,14,137.4a119.14,119.14,0,0,1-9.8-15.34,32.92,32.92,0,0,1,4.28-4.93c6.07-6,13.48-10.94,20.52-15.7Q34.27,108,39.39,114.68Z" transform="translate(-4.22 -10.87)"/><path class="cls-6" d="M76.62,196.82a7.12,7.12,0,0,0,3.1,8.29c2.82,1.51,6.88.26,8.07-2.71a5.56,5.56,0,0,0,10.59,0A7.47,7.47,0,0,0,111,201.18" transform="translate(-4.22 -10.87)"/><path class="cls-6" d="M87.14,219a4.86,4.86,0,0,0,9.55,1.09,8.29,8.29,0,0,0,14.49-2.4" transform="translate(-4.22 -10.87)"/><line class="cls-7" x1="141.14" y1="67.09" x2="160.76" y2="41.24"/><line class="cls-7" x1="144.25" y1="73.01" x2="173.21" y2="59.3"/><line class="cls-7" x1="145.5" y1="79.86" x2="177.57" y2="80.48"/></svg>