<svg id="Layer_2" data-name="Layer 2" xmlns="http://www.w3.org/2000/svg" viewBox="0 0 135.97 238.53"><defs><style>.cls-1{fill:#bd6481;}.cls-2{fill:#380725;}.cls-3{fill:#ffdbbe;}.cls-4{fill:#ffb89b;}.cls-5{fill:#fff;}.cls-6{fill:#ff777b;}</style></defs><path class="cls-1" d="M120.25,232.57a16.72,16.72,0,0,1-1.73,1.27c-.24.16-.48.31-.74.46a2,2,0,0,1-.32.18,16.73,16.73,0,0,1-1.68.88l.15.55a33.93,33.93,0,0,1,1.16,5.79H17.82c-.19-.23-.37-.45-.54-.68q2.16-4.32,4.18-8.69c.11-.19.19-.39.28-.58h0a6,6,0,0,1-.6-.19,18.28,18.28,0,0,1-2-.69A24.06,24.06,0,0,1,6.43,198.56c3.31-7.23,9.91-12.32,16.27-17.09q7.74-5.83,15.5-11.67c1.67-1.27,3.36-2.51,5-3.78l5.8-4.37c.15.37.28.76.43,1.13a21.86,21.86,0,0,1,2.18-1h0c.65-.28,1.33-.52,2-.75l.86-.26h0c.44-.14.9-.26,1.36-.38s.93-.24,1.39-.34h0c2.24-.55,4.49-.95,6.45-1.29l.57-.1,1.17-.21,1-.17.47-.09c1.17-.23,2.34-.45,3.52-.64q3.55-.6,7.16-.94c.9-.09,1.79-.17,2.7-.23s1.79-.13,2.68-.18q3.16-.15,6.31-.13h0c.67,0,1.33,0,2,0s1.31,0,2,.06a3.23,3.23,0,0,1,2.11.6,3.28,3.28,0,0,1,.82,1.75q.38,1.5.72,3c.4,1.68.78,3.36,1.15,5.06s.78,3.6,1.16,5.41c.47.54.94,1.06,1.44,1.57l.2.2c2.31,2.29,4.84,4.33,7.24,6.52a73.22,73.22,0,0,1,12.32,14.76c3.66,5.78,6.54,12.24,7,19.07S125.5,228.19,120.25,232.57Z" transform="translate(-4.26 -3.17)"/><path class="cls-2" d="M113.33,230.05a.66.66,0,0,1-.51-.25.65.65,0,0,1,.12-.9,3.59,3.59,0,0,0,1.39-2.93.64.64,0,0,1,.62-.65.63.63,0,0,1,.65.61,4.89,4.89,0,0,1-1.89,4A.67.67,0,0,1,113.33,230.05Z" transform="translate(-4.26 -3.17)"/><path class="cls-2" d="M116.26,229.08a.66.66,0,0,1-.48-.21.64.64,0,0,1,.07-.9,3.51,3.51,0,0,0,1.12-3.11.64.64,0,0,1,1.26-.21,4.8,4.8,0,0,1-1.55,4.28A.66.66,0,0,1,116.26,229.08Z" transform="translate(-4.26 -3.17)"/><path class="cls-2" d="M119.21,227.9a.58.58,0,0,1-.31-.08.63.63,0,0,1-.24-.87,5.87,5.87,0,0,0,.68-3.81.64.64,0,1,1,1.26-.2,7.14,7.14,0,0,1-.83,4.64A.64.64,0,0,1,119.21,227.9Z" transform="translate(-4.26 -3.17)"/><path class="cls-2" d="M20.35,222.56a.63.63,0,0,1-.39-.13,4.9,4.9,0,0,1-1.89-4,.64.64,0,1,1,1.27,0,3.61,3.61,0,0,0,1.4,2.93.64.64,0,0,1,.11.89A.6.6,0,0,1,20.35,222.56Z" transform="translate(-4.26 -3.17)"/><path class="cls-2" d="M17.41,221.6a.66.66,0,0,1-.42-.15,4.82,4.82,0,0,1-1.55-4.28.66.66,0,0,1,.73-.53.64.64,0,0,1,.53.73,3.47,3.47,0,0,0,1.13,3.11.65.65,0,0,1,.06.9A.62.62,0,0,1,17.41,221.6Z" transform="translate(-4.26 -3.17)"/><path class="cls-2" d="M14.46,220.42a.63.63,0,0,1-.55-.32,7.08,7.08,0,0,1-.83-4.64.63.63,0,0,1,.73-.53.64.64,0,0,1,.53.73,5.75,5.75,0,0,0,.68,3.81.65.65,0,0,1-.24.87A.61.61,0,0,1,14.46,220.42Z" transform="translate(-4.26 -3.17)"/><polygon class="cls-2" points="92.01 238.01 89.43 238.53 78.86 238.53 70.37 211.29 81.75 207.12 81.75 207.13 81.95 207.74 91.78 237.31 91.98 237.92 92.01 238.01"/><polygon class="cls-2" points="46.62 198.49 45.32 231.67 56.92 227.55 56.49 197.63 46.62 198.49"/><path class="cls-2" d="M98.06,166.59a27.31,27.31,0,0,1-6.84,9.52c-7.51,6.88-18.41,10.09-28.3,7.71A28,28,0,0,1,43.22,166c1.94-1.47,3.86-2.92,5.8-4.37.15.37.28.75.43,1.12,5.11-2.78,13.12-3.74,17.46-4.6a110.29,110.29,0,0,1,26.34-2,3.26,3.26,0,0,1,2.12.59,3.3,3.3,0,0,1,.81,1.75C96.85,161.19,97.47,163.88,98.06,166.59Z" transform="translate(-4.26 -3.17)"/><path class="cls-2" d="M39.77,235.76a49.77,49.77,0,0,1-18.27-3.41.64.64,0,0,1-.36-.83.66.66,0,0,1,.83-.36c18.78,7.38,35.89.36,38.57-.84l-.42-28.85-39.24,2.35a.64.64,0,0,1-.07-1.27l39.9-2.39a.59.59,0,0,1,.47.17.66.66,0,0,1,.21.46l.43,29.93a.66.66,0,0,1-.36.58A54.11,54.11,0,0,1,39.77,235.76Z" transform="translate(-4.26 -3.17)"/><path class="cls-2" d="M86.21,210.91l-10.79,4,8.37,26.84H82.44l-8.42-27a.63.63,0,0,1,.39-.79l33.83-12.38a.64.64,0,0,1,.43,1.2Z" transform="translate(-4.26 -3.17)"/><path class="cls-2" d="M118.33,234.75a5.59,5.59,0,0,1-.6.3c-.55.28-1.15.56-1.8.86-5.12,2.21-13.25,4.34-19.5,5.79H90.52l.47-.1.57-.11,1.85-.41c.84-.19,1.72-.38,2.62-.6h.07c7-1.62,16.31-4.07,21.07-6.55.19-.09.34-.18.5-.27a.63.63,0,0,1,.85.19s0,0,0,0A.65.65,0,0,1,118.33,234.75Z" transform="translate(-4.26 -3.17)"/><path class="cls-3" d="M103.77,173.16c-3.27,1.36-7.55.37-10.2-1.67a8.64,8.64,0,0,1-8.95,8.89c-5.06-.18-8.3-4.19-10.62-7.71-1.22,3.52-5.56,6.32-10.25,6.26s-9.12-3.26-9.16-6.91c-1.83,3.54-8.05,5.16-12.3,3.2s-5.47-7-2.4-10c-3.17,1.25-7.38-.61-8.43-3.27s.51-5.62,3.08-7.52,6-2.93,9.42-3.72A94.73,94.73,0,0,1,81.88,150c7.09,1.31,16.74,2.06,22.13,6.28,2.78,2.16,8.62,8.66,1.31,9.67C108,168,107,171.81,103.77,173.16Z" transform="translate(-4.26 -3.17)"/><path class="cls-3" d="M46.9,65.94s-2.5-26.46-3.22-33.56S44.85,4.91,41,3.55s-17.83.3-22.21,15.68S17.1,40.89,21,50.42a165.37,165.37,0,0,1,6.1,17.72Z" transform="translate(-4.26 -3.17)"/><path class="cls-4" d="M41.38,11.18c.11-1.55.13-3.35-1.08-4.33a3.21,3.21,0,0,0-3.53-.07,8.3,8.3,0,0,0-2.59,2.68c-7.38,10.69-10.07,24.78-6,37.1,1.19,3.57,3,7.14,6.17,9.37,2,1.42,7.22,3.81,8.79.49.76-1.62-.28-4.43-.5-6.11q-.49-3.66-.84-7.32-.7-7.47-.85-15C40.86,22.4,41,16.78,41.38,11.18Z" transform="translate(-4.26 -3.17)"/><path class="cls-3" d="M120,76.68s-2.32,3.5-1.87,13.5,11.58,35,8,51.37-5.87,20.83-55.15,20.53c-15.32-.09-43.76,1.21-53.78-13.27-3.47-5-4-11.59-2.87-17.58,1.86-9.54,7.74-17.58,9.29-27.24,2-12.2-3.5-25.64,6.71-35.36,7.38-7,18.58-8.82,28.21-10.58A61.4,61.4,0,0,1,100,65.25Z" transform="translate(-4.26 -3.17)"/><ellipse class="cls-5" cx="38.43" cy="109.93" rx="18.35" ry="18.01" transform="translate(-79.88 130.25) rotate(-82.37)"/><path class="cls-2" d="M23.31,107.91A15.36,15.36,0,1,0,40.57,94.73,15.34,15.34,0,0,0,23.31,107.91Z" transform="translate(-4.26 -3.17)"/><path class="cls-3" d="M119,79s1.69-2.42,8.82-10.94S142.76,46.91,139.44,28,119.31,8.49,117.73,10.23,111.55,30,109,41.55s-6.37,29.59-6.37,29.59Z" transform="translate(-4.26 -3.17)"/><path class="cls-4" d="M110.54,71.45c1.12-4.22,4.15-7.62,6.64-11.21a51.26,51.26,0,0,0,8.67-35.13c-.47-3.84-1.54-7.85-3.85-10.84a2.53,2.53,0,0,0-4.18.34,11.21,11.21,0,0,0-.78,1.71c-4.71,13.93-9.46,28-11.09,42.62a22.19,22.19,0,0,0,0,6.61C106.36,67.73,108.73,70.18,110.54,71.45Z" transform="translate(-4.26 -3.17)"/><path class="cls-3" d="M101.2,53.45a13,13,0,0,0-12.75-.82,17.05,17.05,0,0,0-7-10.07,12.38,12.38,0,0,0-12-.88,12.39,12.39,0,0,0-22.39.89A13.52,13.52,0,0,0,27,53.19a12.23,12.23,0,0,0-7.29,14.48,12.15,12.15,0,0,0,14,8.06A13.9,13.9,0,0,0,51.6,89.31c4.26-1.3,7.63-4.54,10.57-7.89a14.4,14.4,0,0,0,7.18,7.7,11.3,11.3,0,0,0,10.34-.43c3.94-2.38,5.76-7.07,7.19-11.46a13.11,13.11,0,0,0,14.53,2.2C111.9,74.21,110,59.32,101.2,53.45Z" transform="translate(-4.26 -3.17)"/><path class="cls-2" d="M73,88.18a14.2,14.2,0,0,0,12.55-7.46c3.15,1.22,7.68,2.31,12.12,1s7.85-5.06,8.25-9.14a.47.47,0,0,0-.42-.52.49.49,0,0,0-.52.43c-.37,3.7-3.48,7.12-7.57,8.32-4.38,1.28-8.89.09-11.91-1.14a.47.47,0,0,0-.6.24,12.88,12.88,0,0,1-23.55-.73.49.49,0,0,0-.43-.3.46.46,0,0,0-.45.28,10.24,10.24,0,0,1-19.16-1.1.47.47,0,1,0-.9.28,11.18,11.18,0,0,0,20.47,2.11,14.28,14.28,0,0,0,12,7.72Z" transform="translate(-4.26 -3.17)"/><path class="cls-2" d="M28.23,75.26a26.68,26.68,0,0,0,4-.34,31,31,0,0,1,3.45-.33.48.48,0,0,0,.47-.48.47.47,0,0,0-.48-.47,32.44,32.44,0,0,0-3.57.34,17,17,0,0,1-5.45.18,9.55,9.55,0,0,1-7.41-8.64,11.81,11.81,0,0,1,5.44-10.46.47.47,0,0,0,.13-.66.48.48,0,0,0-.65-.13A12.79,12.79,0,0,0,18.3,65.59a10.54,10.54,0,0,0,8.19,9.5A10.26,10.26,0,0,0,28.23,75.26Z" transform="translate(-4.26 -3.17)"/><path class="cls-4" d="M84.24,112.86c1.17,2.13,1.84,4.5,2.91,6.69,1.61,3.3,4.11,6.11,5.76,9.4a26,26,0,0,1,2,15.45,20.42,20.42,0,0,1-4,9.92c-3,3.71-7.71,5.67-12.35,6.84-7,1.76-14.6,2-21.13-1A23.64,23.64,0,0,1,45,146.07a24.1,24.1,0,0,1,1.78-18.7c1.71-3.16,4.13-5.91,5.69-9.15,1.66-3.42,2.43-7.46,5.26-10C65.32,101.45,79.5,104.17,84.24,112.86Z" transform="translate(-4.26 -3.17)"/><path class="cls-2" d="M67,118.59a.44.44,0,0,0,.35-.24,8.83,8.83,0,0,1,3.34-3.84,5.66,5.66,0,0,1,4.8-.57.42.42,0,0,0,.55-.25.44.44,0,0,0-.25-.56,6.49,6.49,0,0,0-5.54.63,9.33,9.33,0,0,0-3.21,3.35,7.83,7.83,0,0,0-3.19-3.59,7.56,7.56,0,0,0-5.62-.79.43.43,0,0,0-.31.52.43.43,0,0,0,.52.32,6.75,6.75,0,0,1,5,.7,6.88,6.88,0,0,1,3.12,4,.43.43,0,0,0,.37.31Z" transform="translate(-4.26 -3.17)"/><path class="cls-2" d="M66.88,169a5.89,5.89,0,0,0,4.92-2.55A6.32,6.32,0,0,0,81.55,165a.48.48,0,0,0-.82-.48,5.36,5.36,0,0,1-8.67.87.42.42,0,0,0-.41-.15.46.46,0,0,0-.36.25,4.77,4.77,0,0,1-9-1.58.46.46,0,0,0-.24-.36.48.48,0,0,0-.42,0,5.54,5.54,0,0,1-7.08-2.67.46.46,0,0,0-.62-.24.48.48,0,0,0-.24.63,6.28,6.28,0,0,0,3.54,3.23,6.42,6.42,0,0,0,4.23.14,5.67,5.67,0,0,0,5.4,4.41Z" transform="translate(-4.26 -3.17)"/><circle class="cls-5" cx="100.98" cy="111.25" r="18.53" transform="translate(-18.33 204.69) rotate(-87.79)"/><path class="cls-2" d="M85.77,109.21A15.35,15.35,0,1,0,103,96,15.34,15.34,0,0,0,85.77,109.21Z" transform="translate(-4.26 -3.17)"/><path class="cls-6" d="M95.08,132.92c-.19,3.74,6.41,7.12,14.76,7.56s15.28-2.22,15.48-5.95-6.41-7.11-14.76-7.56S95.28,129.19,95.08,132.92Z" transform="translate(-4.26 -3.17)"/><path class="cls-6" d="M13.67,131.43c-.2,3.73,6.41,7.11,14.76,7.55S43.7,136.76,43.9,133s-6.41-7.11-14.76-7.56S13.87,127.7,13.67,131.43Z" transform="translate(-4.26 -3.17)"/><path class="cls-2" d="M41.43,83.58a6.24,6.24,0,0,1-.64,5,4.7,4.7,0,0,1-1.06,1.25,6,6,0,0,1-3.39,1.09,9.34,9.34,0,0,1-4.64-.8C21.85,85.42,41.34,83.28,41.43,83.58Z" transform="translate(-4.26 -3.17)"/><path class="cls-2" d="M87.85,84.14a6.24,6.24,0,0,0,.64,5,4.89,4.89,0,0,0,1.06,1.25,6,6,0,0,0,3.39,1.09,9.32,9.32,0,0,0,4.64-.8C107.43,86,87.94,83.84,87.85,84.14Z" transform="translate(-4.26 -3.17)"/><path class="cls-2" d="M77.15,133.77c-1.45-3-3.89-5.67-7.3-6.25a10,10,0,0,0-10.36,5.85Z" transform="translate(-4.26 -3.17)"/></svg>